<svg id="visual" viewBox="0 0 900 600" width="900" height="600" xmlns="http://www.w3.org/2000/svg" xmlns:xlink="http://www.w3.org/1999/xlink" version="1.1"><rect x="0" y="0" width="900" height="600" fill="#473989"></rect><path d="M0 427L16.7 426C33.3 425 66.7 423 100 422.2C133.3 421.3 166.7 421.7 200 426.8C233.3 432 266.7 442 300 439.7C333.3 437.3 366.7 422.7 400 415C433.3 407.3 466.7 406.7 500 406.7C533.3 406.7 566.7 407.3 600 408.3C633.3 409.3 666.7 410.7 700 416.5C733.3 422.3 766.7 432.7 800 434C833.3 435.3 866.7 427.7 883.3 423.8L900 420L900 601L883.3 601C866.7 601 833.3 601 800 601C766.7 601 733.3 601 700 601C666.7 601 633.3 601 600 601C566.7 601 533.3 601 500 601C466.7 601 433.3 601 400 601C366.7 601 333.3 601 300 601C266.7 601 233.3 601 200 601C166.7 601 133.3 601 100 601C66.7 601 33.3 601 16.7 601L0 601Z" fill="#5241a2"></path><path d="M0 472L16.7 468.2C33.3 464.3 66.7 456.7 100 450.5C133.3 444.3 166.7 439.7 200 443.8C233.3 448 266.7 461 300 460.5C333.3 460 366.7 446 400 443.2C433.3 440.3 466.7 448.7 500 454C533.3 459.3 566.7 461.7 600 458C633.3 454.3 666.7 444.7 700 447C733.3 449.3 766.7 463.7 800 469.3C833.3 475 866.7 472 883.3 470.5L900 469L900 601L883.3 601C866.7 601 833.3 601 800 601C766.7 601 733.3 601 700 601C666.7 601 633.3 601 600 601C566.7 601 533.3 601 500 601C466.7 601 433.3 601 400 601C366.7 601 333.3 601 300 601C266.7 601 233.3 601 200 601C166.7 601 133.3 601 100 601C66.7 601 33.3 601 16.7 601L0 601Z" fill="#5a49a9"></path><path d="M0 480L16.7 482C33.3 484 66.7 488 100 483.7C133.3 479.3 166.7 466.7 200 460.5C233.3 454.3 266.7 454.7 300 454.2C333.3 453.7 366.7 452.3 400 452.8C433.3 453.3 466.7 455.7 500 464.8C533.3 474 566.7 490 600 495.2C633.3 500.3 666.7 494.7 700 492.3C733.3 490 766.7 491 800 487.2C833.3 483.3 866.7 474.7 883.3 470.3L900 466L900 601L883.3 601C866.7 601 833.3 601 800 601C766.7 601 733.3 601 700 601C666.7 601 633.3 601 600 601C566.7 601 533.3 601 500 601C466.7 601 433.3 601 400 601C366.7 601 333.3 601 300 601C266.7 601 233.3 601 200 601C166.7 601 133.3 601 100 601C66.7 601 33.3 601 16.7 601L0 601Z" fill="#6251b0"></path><path d="M0 507L16.7 509.2C33.3 511.3 66.7 515.7 100 515.7C133.3 515.7 166.7 511.3 200 507.5C233.3 503.7 266.7 500.3 300 496C333.3 491.7 366.7 486.3 400 489.7C433.3 493 466.7 505 500 512.5C533.3 520 566.7 523 600 521.3C633.3 519.7 666.7 513.3 700 511.8C733.3 510.3 766.7 513.7 800 516.7C833.3 519.7 866.7 522.3 883.3 523.7L900 525L900 601L883.3 601C866.7 601 833.3 601 800 601C766.7 601 733.3 601 700 601C666.7 601 633.3 601 600 601C566.7 601 533.3 601 500 601C466.7 601 433.3 601 400 601C366.7 601 333.3 601 300 601C266.7 601 233.3 601 200 601C166.7 601 133.3 601 100 601C66.7 601 33.3 601 16.7 601L0 601Z" fill="#6a59b6"></path><path d="M0 536L16.7 535.3C33.3 534.7 66.7 533.3 100 532.5C133.3 531.7 166.7 531.3 200 532.8C233.3 534.3 266.7 537.7 300 541.5C333.3 545.3 366.7 549.7 400 547.5C433.3 545.3 466.7 536.7 500 531.8C533.3 527 566.7 526 600 531.2C633.3 536.3 666.7 547.7 700 549.8C733.3 552 766.7 545 800 539.3C833.3 533.7 866.7 529.3 883.3 527.2L900 525L900 601L883.3 601C866.7 601 833.3 601 800 601C766.7 601 733.3 601 700 601C666.7 601 633.3 601 600 601C566.7 601 533.3 601 500 601C466.7 601 433.3 601 400 601C366.7 601 333.3 601 300 601C266.7 601 233.3 601 200 601C166.7 601 133.3 601 100 601C66.7 601 33.3 601 16.7 601L0 601Z" fill="#7261bd"></path><path d="M0 573L16.7 571.2C33.3 569.3 66.7 565.7 100 566C133.3 566.3 166.7 570.7 200 569.8C233.3 569 266.7 563 300 563.5C333.3 564 366.7 571 400 572C433.3 573 466.7 568 500 569C533.3 570 566.7 577 600 575.8C633.3 574.7 666.7 565.3 700 561.3C733.3 557.3 766.7 558.7 800 559.8C833.3 561 866.7 562 883.3 562.5L900 563L900 601L883.3 601C866.7 601 833.3 601 800 601C766.7 601 733.3 601 700 601C666.7 601 633.3 601 600 601C566.7 601 533.3 601 500 601C466.7 601 433.3 601 400 601C366.7 601 333.3 601 300 601C266.7 601 233.3 601 200 601C166.7 601 133.3 601 100 601C66.7 601 33.3 601 16.7 601L0 601Z" fill="#7a69c4"></path></svg>