<svg id="visual" viewBox="0 0 900 600" width="900" height="600" xmlns="http://www.w3.org/2000/svg" xmlns:xlink="http://www.w3.org/1999/xlink" version="1.1"><rect x="0" y="0" width="900" height="600" fill="#342965"></rect><path d="M0 319L21.5 331.2C43 343.3 86 367.7 128.8 375C171.7 382.3 214.3 372.7 257.2 361C300 349.3 343 335.7 385.8 336.5C428.7 337.3 471.3 352.7 514.2 353.2C557 353.7 600 339.3 642.8 343.5C685.7 347.7 728.3 370.3 771.2 368.8C814 367.3 857 341.7 878.5 328.8L900 316L900 601L878.5 601C857 601 814 601 771.2 601C728.3 601 685.7 601 642.8 601C600 601 557 601 514.2 601C471.3 601 428.7 601 385.8 601C343 601 300 601 257.2 601C214.3 601 171.7 601 128.8 601C86 601 43 601 21.5 601L0 601Z" fill="#392d6e"></path><path d="M0 364L21.5 364.7C43 365.3 86 366.7 128.8 366.3C171.7 366 214.3 364 257.2 373.8C300 383.7 343 405.3 385.8 414.2C428.7 423 471.3 419 514.2 410C557 401 600 387 642.8 379.2C685.7 371.3 728.3 369.7 771.2 368.3C814 367 857 366 878.5 365.5L900 365L900 601L878.5 601C857 601 814 601 771.2 601C728.3 601 685.7 601 642.8 601C600 601 557 601 514.2 601C471.3 601 428.7 601 385.8 601C343 601 300 601 257.2 601C214.3 601 171.7 601 128.8 601C86 601 43 601 21.5 601L0 601Z" fill="#433580"></path><path d="M0 426L21.5 426C43 426 86 426 128.8 428.2C171.7 430.3 214.3 434.7 257.2 433.3C300 432 343 425 385.8 432.7C428.7 440.3 471.3 462.7 514.2 470.5C557 478.3 600 471.7 642.8 469.7C685.7 467.7 728.3 470.3 771.2 470.3C814 470.3 857 467.7 878.5 466.3L900 465L900 601L878.5 601C857 601 814 601 771.2 601C728.3 601 685.7 601 642.8 601C600 601 557 601 514.2 601C471.3 601 428.7 601 385.8 601C343 601 300 601 257.2 601C214.3 601 171.7 601 128.8 601C86 601 43 601 21.5 601L0 601Z" fill="#4d3d92"></path><path d="M0 504L21.5 506.3C43 508.7 86 513.3 128.8 515.8C171.7 518.3 214.3 518.7 257.2 519C300 519.3 343 519.7 385.8 510.5C428.7 501.3 471.3 482.7 514.2 473.7C557 464.7 600 465.3 642.8 473.7C685.7 482 728.3 498 771.2 500C814 502 857 490 878.5 484L900 478L900 601L878.5 601C857 601 814 601 771.2 601C728.3 601 685.7 601 642.8 601C600 601 557 601 514.2 601C471.3 601 428.7 601 385.8 601C343 601 300 601 257.2 601C214.3 601 171.7 601 128.8 601C86 601 43 601 21.5 601L0 601Z" fill="#5745a4"></path><path d="M0 529L21.5 527.3C43 525.7 86 522.3 128.8 526C171.7 529.7 214.3 540.3 257.2 541.7C300 543 343 535 385.8 534.5C428.7 534 471.3 541 514.2 539.5C557 538 600 528 642.8 528.7C685.7 529.3 728.3 540.7 771.2 542.3C814 544 857 536 878.5 532L900 528L900 601L878.5 601C857 601 814 601 771.2 601C728.3 601 685.7 601 642.8 601C600 601 557 601 514.2 601C471.3 601 428.7 601 385.8 601C343 601 300 601 257.2 601C214.3 601 171.7 601 128.8 601C86 601 43 601 21.5 601L0 601Z" fill="#614eb7"></path></svg>