<svg id="visual" viewBox="0 0 900 600" width="900" height="600" xmlns="http://www.w3.org/2000/svg" xmlns:xlink="http://www.w3.org/1999/xlink" version="1.1"><rect x="0" y="0" width="900" height="600" fill="#342965"></rect><path d="M0 393L16.7 392.2C33.3 391.3 66.7 389.7 100 396.5C133.3 403.3 166.7 418.7 200 425.3C233.3 432 266.7 430 300 428.5C333.3 427 366.7 426 400 427.3C433.3 428.7 466.7 432.3 500 435C533.3 437.7 566.7 439.3 600 437C633.3 434.7 666.7 428.3 700 418.5C733.3 408.7 766.7 395.3 800 392.2C833.3 389 866.7 396 883.3 399.5L900 403L900 601L883.3 601C866.7 601 833.3 601 800 601C766.7 601 733.3 601 700 601C666.7 601 633.3 601 600 601C566.7 601 533.3 601 500 601C466.7 601 433.3 601 400 601C366.7 601 333.3 601 300 601C266.7 601 233.3 601 200 601C166.7 601 133.3 601 100 601C66.7 601 33.3 601 16.7 601L0 601Z" fill="#342968"></path><path d="M0 442L16.7 440.3C33.3 438.7 66.7 435.3 100 439.7C133.3 444 166.7 456 200 461.3C233.3 466.7 266.7 465.3 300 464.5C333.3 463.7 366.7 463.3 400 463.5C433.3 463.7 466.7 464.3 500 462C533.3 459.7 566.7 454.3 600 447.5C633.3 440.7 666.7 432.3 700 426.7C733.3 421 766.7 418 800 418.8C833.3 419.7 866.7 424.3 883.3 426.7L900 429L900 601L883.3 601C866.7 601 833.3 601 800 601C766.7 601 733.3 601 700 601C666.7 601 633.3 601 600 601C566.7 601 533.3 601 500 601C466.7 601 433.3 601 400 601C366.7 601 333.3 601 300 601C266.7 601 233.3 601 200 601C166.7 601 133.3 601 100 601C66.7 601 33.3 601 16.7 601L0 601Z" fill="#382c6e"></path><path d="M0 474L16.7 476.7C33.3 479.3 66.7 484.7 100 483.2C133.3 481.7 166.7 473.3 200 471.2C233.3 469 266.7 473 300 471.2C333.3 469.3 366.7 461.7 400 462.7C433.3 463.7 466.7 473.3 500 477C533.3 480.7 566.7 478.3 600 475.7C633.3 473 666.7 470 700 473.7C733.3 477.3 766.7 487.7 800 484.8C833.3 482 866.7 466 883.3 458L900 450L900 601L883.3 601C866.7 601 833.3 601 800 601C766.7 601 733.3 601 700 601C666.7 601 633.3 601 600 601C566.7 601 533.3 601 500 601C466.7 601 433.3 601 400 601C366.7 601 333.3 601 300 601C266.7 601 233.3 601 200 601C166.7 601 133.3 601 100 601C66.7 601 33.3 601 16.7 601L0 601Z" fill="#3b2f75"></path><path d="M0 499L16.7 495.7C33.3 492.3 66.7 485.7 100 485.8C133.3 486 166.7 493 200 495.2C233.3 497.3 266.7 494.7 300 499C333.3 503.3 366.7 514.7 400 520.5C433.3 526.3 466.7 526.7 500 526.2C533.3 525.7 566.7 524.3 600 521C633.3 517.7 666.7 512.3 700 510.3C733.3 508.3 766.7 509.7 800 508.7C833.3 507.7 866.7 504.3 883.3 502.7L900 501L900 601L883.3 601C866.7 601 833.3 601 800 601C766.7 601 733.3 601 700 601C666.7 601 633.3 601 600 601C566.7 601 533.3 601 500 601C466.7 601 433.3 601 400 601C366.7 601 333.3 601 300 601C266.7 601 233.3 601 200 601C166.7 601 133.3 601 100 601C66.7 601 33.3 601 16.7 601L0 601Z" fill="#3f337b"></path><path d="M0 538L16.7 535.5C33.3 533 66.7 528 100 529.3C133.3 530.7 166.7 538.3 200 537.3C233.3 536.3 266.7 526.7 300 524.3C333.3 522 366.7 527 400 530.3C433.3 533.7 466.7 535.3 500 534C533.3 532.7 566.7 528.3 600 529.8C633.3 531.3 666.7 538.7 700 538C733.3 537.3 766.7 528.7 800 527.2C833.3 525.7 866.7 531.3 883.3 534.2L900 537L900 601L883.3 601C866.7 601 833.3 601 800 601C766.7 601 733.3 601 700 601C666.7 601 633.3 601 600 601C566.7 601 533.3 601 500 601C466.7 601 433.3 601 400 601C366.7 601 333.3 601 300 601C266.7 601 233.3 601 200 601C166.7 601 133.3 601 100 601C66.7 601 33.3 601 16.7 601L0 601Z" fill="#433682"></path><path d="M0 555L16.7 553.8C33.3 552.7 66.7 550.3 100 550.7C133.3 551 166.7 554 200 557.3C233.3 560.7 266.7 564.3 300 566.3C333.3 568.3 366.7 568.7 400 565.2C433.3 561.7 466.7 554.3 500 554.8C533.3 555.3 566.7 563.7 600 567.5C633.3 571.3 666.7 570.7 700 572.5C733.3 574.3 766.7 578.7 800 579.7C833.3 580.7 866.7 578.3 883.3 577.2L900 576L900 601L883.3 601C866.7 601 833.3 601 800 601C766.7 601 733.3 601 700 601C666.7 601 633.3 601 600 601C566.7 601 533.3 601 500 601C466.7 601 433.3 601 400 601C366.7 601 333.3 601 300 601C266.7 601 233.3 601 200 601C166.7 601 133.3 601 100 601C66.7 601 33.3 601 16.7 601L0 601Z" fill="#473989"></path></svg>