<svg id="visual" viewBox="0 0 900 600" width="900" height="600" xmlns="http://www.w3.org/2000/svg" xmlns:xlink="http://www.w3.org/1999/xlink" version="1.1"><rect x="0" y="0" width="900" height="600" fill="#1a051e"></rect><path d="M0 345L15 350.7C30 356.3 60 367.7 90 366.8C120 366 150 353 180 337.3C210 321.7 240 303.3 270 300.2C300 297 330 309 360 308.5C390 308 420 295 450 297.3C480 299.7 510 317.3 540 316.8C570 316.3 600 297.7 630 293.8C660 290 690 301 720 316.5C750 332 780 352 810 354.2C840 356.3 870 340.7 885 332.8L900 325L900 601L885 601C870 601 840 601 810 601C780 601 750 601 720 601C690 601 660 601 630 601C600 601 570 601 540 601C510 601 480 601 450 601C420 601 390 601 360 601C330 601 300 601 270 601C240 601 210 601 180 601C150 601 120 601 90 601C60 601 30 601 15 601L0 601Z" fill="#200725"></path><path d="M0 425L15 422.5C30 420 60 415 90 409.7C120 404.3 150 398.7 180 387.5C210 376.3 240 359.7 270 362.5C300 365.3 330 387.7 360 387.2C390 386.7 420 363.3 450 365.3C480 367.3 510 394.7 540 394.5C570 394.3 600 366.7 630 361C660 355.3 690 371.7 720 385.3C750 399 780 410 810 402.5C840 395 870 369 885 356L900 343L900 601L885 601C870 601 840 601 810 601C780 601 750 601 720 601C690 601 660 601 630 601C600 601 570 601 540 601C510 601 480 601 450 601C420 601 390 601 360 601C330 601 300 601 270 601C240 601 210 601 180 601C150 601 120 601 90 601C60 601 30 601 15 601L0 601Z" fill="#271033"></path><path d="M0 465L15 454.3C30 443.7 60 422.3 90 419.8C120 417.3 150 433.7 180 436.5C210 439.3 240 428.7 270 421.5C300 414.3 330 410.7 360 411.3C390 412 420 417 450 414.5C480 412 510 402 540 398.2C570 394.3 600 396.7 630 407.5C660 418.3 690 437.7 720 446.5C750 455.3 780 453.7 810 445.2C840 436.7 870 421.3 885 413.7L900 406L900 601L885 601C870 601 840 601 810 601C780 601 750 601 720 601C690 601 660 601 630 601C600 601 570 601 540 601C510 601 480 601 450 601C420 601 390 601 360 601C330 601 300 601 270 601C240 601 210 601 180 601C150 601 120 601 90 601C60 601 30 601 15 601L0 601Z" fill="#2d1743"></path><path d="M0 476L15 480.5C30 485 60 494 90 493C120 492 150 481 180 479.2C210 477.3 240 484.7 270 489.2C300 493.7 330 495.3 360 489.7C390 484 420 471 450 462.8C480 454.7 510 451.3 540 453.2C570 455 600 462 630 470C660 478 690 487 720 485C750 483 780 470 810 468.8C840 467.7 870 478.3 885 483.7L900 489L900 601L885 601C870 601 840 601 810 601C780 601 750 601 720 601C690 601 660 601 630 601C600 601 570 601 540 601C510 601 480 601 450 601C420 601 390 601 360 601C330 601 300 601 270 601C240 601 210 601 180 601C150 601 120 601 90 601C60 601 30 601 15 601L0 601Z" fill="#322054"></path><path d="M0 547L15 551C30 555 60 563 90 559.2C120 555.3 150 539.7 180 532C210 524.3 240 524.7 270 523.8C300 523 330 521 360 527.7C390 534.3 420 549.7 450 550.2C480 550.7 510 536.3 540 536.5C570 536.7 600 551.3 630 555.3C660 559.3 690 552.7 720 548.2C750 543.7 780 541.3 810 537.2C840 533 870 527 885 524L900 521L900 601L885 601C870 601 840 601 810 601C780 601 750 601 720 601C690 601 660 601 630 601C600 601 570 601 540 601C510 601 480 601 450 601C420 601 390 601 360 601C330 601 300 601 270 601C240 601 210 601 180 601C150 601 120 601 90 601C60 601 30 601 15 601L0 601Z" fill="#342965"></path></svg>