<svg id="visual" viewBox="0 0 900 450" width="900" height="450" xmlns="http://www.w3.org/2000/svg" xmlns:xlink="http://www.w3.org/1999/xlink" version="1.1"><rect x="0" y="0" width="900" height="450" fill="#4a1251"></rect><path d="M0 282L10 281.5C20 281 40 280 60 278.2C80 276.3 100 273.7 120 273.2C140 272.7 160 274.3 180 274.7C200 275 220 274 240 271.7C260 269.3 280 265.7 300 261C320 256.3 340 250.7 360 254.5C380 258.3 400 271.7 420 276C440 280.3 460 275.7 480 269.3C500 263 520 255 540 255.7C560 256.3 580 265.7 600 268.8C620 272 640 269 660 275.7C680 282.3 700 298.7 720 297C740 295.3 760 275.7 780 266C800 256.3 820 256.7 840 255.8C860 255 880 253 890 252L900 251L900 451L890 451C880 451 860 451 840 451C820 451 800 451 780 451C760 451 740 451 720 451C700 451 680 451 660 451C640 451 620 451 600 451C580 451 560 451 540 451C520 451 500 451 480 451C460 451 440 451 420 451C400 451 380 451 360 451C340 451 320 451 300 451C280 451 260 451 240 451C220 451 200 451 180 451C160 451 140 451 120 451C100 451 80 451 60 451C40 451 20 451 10 451L0 451Z" fill="#390f40"></path><path d="M0 328L10 321.3C20 314.7 40 301.3 60 297.3C80 293.3 100 298.7 120 298.2C140 297.7 160 291.3 180 294.7C200 298 220 311 240 312.8C260 314.7 280 305.3 300 300.7C320 296 340 296 360 300.8C380 305.7 400 315.3 420 313.7C440 312 460 299 480 291C500 283 520 280 540 280.5C560 281 580 285 600 291.5C620 298 640 307 660 315.2C680 323.3 700 330.7 720 324.7C740 318.7 760 299.3 780 297.7C800 296 820 312 840 321.7C860 331.3 880 334.7 890 336.3L900 338L900 451L890 451C880 451 860 451 840 451C820 451 800 451 780 451C760 451 740 451 720 451C700 451 680 451 660 451C640 451 620 451 600 451C580 451 560 451 540 451C520 451 500 451 480 451C460 451 440 451 420 451C400 451 380 451 360 451C340 451 320 451 300 451C280 451 260 451 240 451C220 451 200 451 180 451C160 451 140 451 120 451C100 451 80 451 60 451C40 451 20 451 10 451L0 451Z" fill="#300e37"></path><path d="M0 325L10 326.3C20 327.7 40 330.3 60 335C80 339.7 100 346.3 120 345.3C140 344.3 160 335.7 180 333.3C200 331 220 335 240 336.7C260 338.3 280 337.7 300 340.3C320 343 340 349 360 347C380 345 400 335 420 331.2C440 327.3 460 329.7 480 336.5C500 343.3 520 354.7 540 359C560 363.3 580 360.7 600 352C620 343.3 640 328.7 660 326.8C680 325 700 336 720 336.3C740 336.7 760 326.3 780 325.3C800 324.3 820 332.7 840 340.2C860 347.7 880 354.3 890 357.7L900 361L900 451L890 451C880 451 860 451 840 451C820 451 800 451 780 451C760 451 740 451 720 451C700 451 680 451 660 451C640 451 620 451 600 451C580 451 560 451 540 451C520 451 500 451 480 451C460 451 440 451 420 451C400 451 380 451 360 451C340 451 320 451 300 451C280 451 260 451 240 451C220 451 200 451 180 451C160 451 140 451 120 451C100 451 80 451 60 451C40 451 20 451 10 451L0 451Z" fill="#280d2f"></path><path d="M0 365L10 364.8C20 364.7 40 364.3 60 362.7C80 361 100 358 120 358.7C140 359.3 160 363.7 180 366.2C200 368.7 220 369.3 240 368C260 366.7 280 363.3 300 366.7C320 370 340 380 360 379.5C380 379 400 368 420 361.7C440 355.3 460 353.7 480 358.5C500 363.3 520 374.7 540 376.8C560 379 580 372 600 369C620 366 640 367 660 369.3C680 371.7 700 375.3 720 379C740 382.7 760 386.3 780 387.2C800 388 820 386 840 384.5C860 383 880 382 890 381.5L900 381L900 451L890 451C880 451 860 451 840 451C820 451 800 451 780 451C760 451 740 451 720 451C700 451 680 451 660 451C640 451 620 451 600 451C580 451 560 451 540 451C520 451 500 451 480 451C460 451 440 451 420 451C400 451 380 451 360 451C340 451 320 451 300 451C280 451 260 451 240 451C220 451 200 451 180 451C160 451 140 451 120 451C100 451 80 451 60 451C40 451 20 451 10 451L0 451Z" fill="#200b26"></path><path d="M0 410L10 408C20 406 40 402 60 398C80 394 100 390 120 393.2C140 396.3 160 406.7 180 409.2C200 411.7 220 406.3 240 405.5C260 404.7 280 408.3 300 411.2C320 414 340 416 360 415.8C380 415.7 400 413.3 420 413.3C440 413.3 460 415.7 480 416.5C500 417.3 520 416.7 540 413.8C560 411 580 406 600 404.8C620 403.7 640 406.3 660 405.3C680 404.3 700 399.7 720 397C740 394.3 760 393.7 780 397.2C800 400.7 820 408.3 840 412.3C860 416.3 880 416.7 890 416.8L900 417L900 451L890 451C880 451 860 451 840 451C820 451 800 451 780 451C760 451 740 451 720 451C700 451 680 451 660 451C640 451 620 451 600 451C580 451 560 451 540 451C520 451 500 451 480 451C460 451 440 451 420 451C400 451 380 451 360 451C340 451 320 451 300 451C280 451 260 451 240 451C220 451 200 451 180 451C160 451 140 451 120 451C100 451 80 451 60 451C40 451 20 451 10 451L0 451Z" fill="#1a051e"></path></svg>